<mxfile host="app.diagrams.net" modified="2023-09-15T11:36:23.762Z" agent="Mozilla/5.0 (Windows NT 10.0; Win64; x64) AppleWebKit/537.36 (KHTML, like Gecko) Chrome/116.0.0.0 Safari/537.36" etag="XEwN1ZFkmGB3RM4eWqV_" version="21.7.5" type="device">
  <diagram name="Page-1" id="UTVIN0ATcbt4tzDXtAAN">
    <mxGraphModel dx="1436" dy="762" grid="1" gridSize="10" guides="1" tooltips="1" connect="1" arrows="1" fold="1" page="1" pageScale="1" pageWidth="850" pageHeight="1100" math="0" shadow="0">
      <root>
        <mxCell id="0" />
        <mxCell id="1" parent="0" />
        <mxCell id="gibNeVkrNDqYFLYTPmZy-1" value="User" style="shape=umlActor;verticalLabelPosition=bottom;verticalAlign=top;html=1;outlineConnect=0;" vertex="1" parent="1">
          <mxGeometry x="55" y="400" width="40" height="80" as="geometry" />
        </mxCell>
        <mxCell id="gibNeVkrNDqYFLYTPmZy-6" value="" style="rounded=0;whiteSpace=wrap;html=1;" vertex="1" parent="1">
          <mxGeometry x="155" y="130" width="560" height="620" as="geometry" />
        </mxCell>
        <mxCell id="gibNeVkrNDqYFLYTPmZy-8" value="Browse Trip" style="ellipse;whiteSpace=wrap;html=1;" vertex="1" parent="1">
          <mxGeometry x="235" y="155" width="120" height="80" as="geometry" />
        </mxCell>
        <mxCell id="gibNeVkrNDqYFLYTPmZy-12" value="Pesan Tiket dan Pilih Metode Pembayaran" style="ellipse;whiteSpace=wrap;html=1;" vertex="1" parent="1">
          <mxGeometry x="235" y="275" width="120" height="80" as="geometry" />
        </mxCell>
        <mxCell id="gibNeVkrNDqYFLYTPmZy-13" value="" style="endArrow=classic;html=1;rounded=0;entryX=0.5;entryY=1;entryDx=0;entryDy=0;exitX=0.5;exitY=0;exitDx=0;exitDy=0;dashed=1;" edge="1" parent="1" source="gibNeVkrNDqYFLYTPmZy-12" target="gibNeVkrNDqYFLYTPmZy-8">
          <mxGeometry width="50" height="50" relative="1" as="geometry">
            <mxPoint x="185" y="280" as="sourcePoint" />
            <mxPoint x="235" y="230" as="targetPoint" />
          </mxGeometry>
        </mxCell>
        <mxCell id="gibNeVkrNDqYFLYTPmZy-14" value="Include" style="edgeLabel;html=1;align=center;verticalAlign=middle;resizable=0;points=[];" vertex="1" connectable="0" parent="gibNeVkrNDqYFLYTPmZy-13">
          <mxGeometry x="-0.177" relative="1" as="geometry">
            <mxPoint as="offset" />
          </mxGeometry>
        </mxCell>
        <mxCell id="gibNeVkrNDqYFLYTPmZy-16" value="Login" style="ellipse;whiteSpace=wrap;html=1;" vertex="1" parent="1">
          <mxGeometry x="235" y="545" width="120" height="80" as="geometry" />
        </mxCell>
        <mxCell id="gibNeVkrNDqYFLYTPmZy-17" value="Payment Gateway" style="shape=umlActor;verticalLabelPosition=bottom;verticalAlign=top;html=1;outlineConnect=0;" vertex="1" parent="1">
          <mxGeometry x="755" y="200" width="40" height="80" as="geometry" />
        </mxCell>
        <mxCell id="gibNeVkrNDqYFLYTPmZy-20" value="Selesaikan Pesanan" style="ellipse;whiteSpace=wrap;html=1;" vertex="1" parent="1">
          <mxGeometry x="235" y="405" width="120" height="80" as="geometry" />
        </mxCell>
        <mxCell id="gibNeVkrNDqYFLYTPmZy-21" value="" style="endArrow=classic;html=1;rounded=0;entryX=0.492;entryY=1.026;entryDx=0;entryDy=0;exitX=0.5;exitY=0;exitDx=0;exitDy=0;dashed=1;entryPerimeter=0;" edge="1" parent="1" source="gibNeVkrNDqYFLYTPmZy-20" target="gibNeVkrNDqYFLYTPmZy-12">
          <mxGeometry width="50" height="50" relative="1" as="geometry">
            <mxPoint x="465" y="210" as="sourcePoint" />
            <mxPoint x="355" y="240" as="targetPoint" />
          </mxGeometry>
        </mxCell>
        <mxCell id="gibNeVkrNDqYFLYTPmZy-22" value="Include" style="edgeLabel;html=1;align=center;verticalAlign=middle;resizable=0;points=[];" vertex="1" connectable="0" parent="gibNeVkrNDqYFLYTPmZy-21">
          <mxGeometry x="-0.177" relative="1" as="geometry">
            <mxPoint as="offset" />
          </mxGeometry>
        </mxCell>
        <mxCell id="gibNeVkrNDqYFLYTPmZy-23" value="" style="endArrow=none;html=1;rounded=0;entryX=0;entryY=0.5;entryDx=0;entryDy=0;exitX=1;exitY=0.3333333333333333;exitDx=0;exitDy=0;exitPerimeter=0;" edge="1" parent="1" source="gibNeVkrNDqYFLYTPmZy-1" target="gibNeVkrNDqYFLYTPmZy-8">
          <mxGeometry width="50" height="50" relative="1" as="geometry">
            <mxPoint x="445" y="430" as="sourcePoint" />
            <mxPoint x="495" y="380" as="targetPoint" />
          </mxGeometry>
        </mxCell>
        <mxCell id="gibNeVkrNDqYFLYTPmZy-24" value="" style="endArrow=none;html=1;rounded=0;entryX=0;entryY=0.5;entryDx=0;entryDy=0;exitX=1;exitY=0.3333333333333333;exitDx=0;exitDy=0;exitPerimeter=0;" edge="1" parent="1" source="gibNeVkrNDqYFLYTPmZy-1" target="gibNeVkrNDqYFLYTPmZy-16">
          <mxGeometry width="50" height="50" relative="1" as="geometry">
            <mxPoint x="95" y="420" as="sourcePoint" />
            <mxPoint x="235" y="240" as="targetPoint" />
          </mxGeometry>
        </mxCell>
        <mxCell id="gibNeVkrNDqYFLYTPmZy-25" value="" style="endArrow=none;html=1;rounded=0;entryX=1;entryY=0.5;entryDx=0;entryDy=0;exitX=0;exitY=0.3333333333333333;exitDx=0;exitDy=0;exitPerimeter=0;" edge="1" parent="1" source="gibNeVkrNDqYFLYTPmZy-17" target="gibNeVkrNDqYFLYTPmZy-20">
          <mxGeometry width="50" height="50" relative="1" as="geometry">
            <mxPoint x="105" y="440" as="sourcePoint" />
            <mxPoint x="235" y="660" as="targetPoint" />
          </mxGeometry>
        </mxCell>
        <mxCell id="gibNeVkrNDqYFLYTPmZy-26" value="Auth Service" style="shape=umlActor;verticalLabelPosition=bottom;verticalAlign=top;html=1;outlineConnect=0;" vertex="1" parent="1">
          <mxGeometry x="755" y="620" width="40" height="80" as="geometry" />
        </mxCell>
        <mxCell id="gibNeVkrNDqYFLYTPmZy-29" value="" style="endArrow=none;html=1;rounded=0;entryX=0;entryY=0.3333333333333333;entryDx=0;entryDy=0;exitX=1;exitY=0.5;exitDx=0;exitDy=0;entryPerimeter=0;" edge="1" parent="1" source="gibNeVkrNDqYFLYTPmZy-16" target="gibNeVkrNDqYFLYTPmZy-26">
          <mxGeometry width="50" height="50" relative="1" as="geometry">
            <mxPoint x="655" y="587" as="sourcePoint" />
            <mxPoint x="495" y="400" as="targetPoint" />
          </mxGeometry>
        </mxCell>
        <mxCell id="gibNeVkrNDqYFLYTPmZy-33" value="Input Stasiun" style="ellipse;whiteSpace=wrap;html=1;" vertex="1" parent="1">
          <mxGeometry x="525" y="370" width="120" height="80" as="geometry" />
        </mxCell>
        <mxCell id="gibNeVkrNDqYFLYTPmZy-34" value="Input Trip" style="ellipse;whiteSpace=wrap;html=1;" vertex="1" parent="1">
          <mxGeometry x="525" y="510" width="120" height="80" as="geometry" />
        </mxCell>
        <mxCell id="gibNeVkrNDqYFLYTPmZy-35" value="" style="endArrow=classic;html=1;rounded=0;exitX=0.5;exitY=0;exitDx=0;exitDy=0;dashed=1;entryX=0.5;entryY=1;entryDx=0;entryDy=0;" edge="1" parent="1" source="gibNeVkrNDqYFLYTPmZy-34" target="gibNeVkrNDqYFLYTPmZy-33">
          <mxGeometry width="50" height="50" relative="1" as="geometry">
            <mxPoint x="494.5" y="457" as="sourcePoint" />
            <mxPoint x="496" y="400" as="targetPoint" />
          </mxGeometry>
        </mxCell>
        <mxCell id="gibNeVkrNDqYFLYTPmZy-36" value="Include" style="edgeLabel;html=1;align=center;verticalAlign=middle;resizable=0;points=[];" vertex="1" connectable="0" parent="gibNeVkrNDqYFLYTPmZy-35">
          <mxGeometry x="-0.177" relative="1" as="geometry">
            <mxPoint as="offset" />
          </mxGeometry>
        </mxCell>
        <mxCell id="gibNeVkrNDqYFLYTPmZy-38" value="Admin" style="shape=umlActor;verticalLabelPosition=bottom;verticalAlign=top;html=1;outlineConnect=0;" vertex="1" parent="1">
          <mxGeometry x="755" y="420" width="40" height="80" as="geometry" />
        </mxCell>
        <mxCell id="gibNeVkrNDqYFLYTPmZy-39" value="" style="endArrow=none;html=1;rounded=0;entryX=1;entryY=0.5;entryDx=0;entryDy=0;exitX=0;exitY=0.3333333333333333;exitDx=0;exitDy=0;exitPerimeter=0;" edge="1" parent="1" source="gibNeVkrNDqYFLYTPmZy-38" target="gibNeVkrNDqYFLYTPmZy-33">
          <mxGeometry width="50" height="50" relative="1" as="geometry">
            <mxPoint x="775" y="237" as="sourcePoint" />
            <mxPoint x="495" y="380" as="targetPoint" />
          </mxGeometry>
        </mxCell>
        <mxCell id="gibNeVkrNDqYFLYTPmZy-40" value="" style="endArrow=none;html=1;rounded=0;entryX=1;entryY=0.5;entryDx=0;entryDy=0;exitX=0;exitY=0.3333333333333333;exitDx=0;exitDy=0;exitPerimeter=0;" edge="1" parent="1" source="gibNeVkrNDqYFLYTPmZy-38" target="gibNeVkrNDqYFLYTPmZy-34">
          <mxGeometry width="50" height="50" relative="1" as="geometry">
            <mxPoint x="775" y="467" as="sourcePoint" />
            <mxPoint x="645" y="430" as="targetPoint" />
          </mxGeometry>
        </mxCell>
        <mxCell id="gibNeVkrNDqYFLYTPmZy-41" value="Registrasi" style="ellipse;whiteSpace=wrap;html=1;" vertex="1" parent="1">
          <mxGeometry x="235" y="645" width="120" height="80" as="geometry" />
        </mxCell>
        <mxCell id="gibNeVkrNDqYFLYTPmZy-42" value="" style="endArrow=none;html=1;rounded=0;entryX=0;entryY=0.5;entryDx=0;entryDy=0;exitX=1;exitY=0.3333333333333333;exitDx=0;exitDy=0;exitPerimeter=0;" edge="1" parent="1" source="gibNeVkrNDqYFLYTPmZy-1" target="gibNeVkrNDqYFLYTPmZy-41">
          <mxGeometry width="50" height="50" relative="1" as="geometry">
            <mxPoint x="65" y="550" as="sourcePoint" />
            <mxPoint x="185" y="600" as="targetPoint" />
          </mxGeometry>
        </mxCell>
        <mxCell id="gibNeVkrNDqYFLYTPmZy-43" value="" style="endArrow=none;html=1;rounded=0;entryX=0;entryY=0.3333333333333333;entryDx=0;entryDy=0;exitX=1.013;exitY=0.557;exitDx=0;exitDy=0;entryPerimeter=0;exitPerimeter=0;" edge="1" parent="1" source="gibNeVkrNDqYFLYTPmZy-41" target="gibNeVkrNDqYFLYTPmZy-26">
          <mxGeometry width="50" height="50" relative="1" as="geometry">
            <mxPoint x="305" y="600" as="sourcePoint" />
            <mxPoint x="765" y="657" as="targetPoint" />
          </mxGeometry>
        </mxCell>
        <mxCell id="gibNeVkrNDqYFLYTPmZy-44" value="" style="endArrow=none;html=1;rounded=0;entryX=0;entryY=0.5;entryDx=0;entryDy=0;exitX=1;exitY=0.3333333333333333;exitDx=0;exitDy=0;exitPerimeter=0;" edge="1" parent="1" source="gibNeVkrNDqYFLYTPmZy-1" target="gibNeVkrNDqYFLYTPmZy-12">
          <mxGeometry width="50" height="50" relative="1" as="geometry">
            <mxPoint x="105" y="437" as="sourcePoint" />
            <mxPoint x="185" y="600" as="targetPoint" />
          </mxGeometry>
        </mxCell>
        <mxCell id="gibNeVkrNDqYFLYTPmZy-46" value="" style="endArrow=none;html=1;rounded=0;exitX=1;exitY=0.3333333333333333;exitDx=0;exitDy=0;exitPerimeter=0;entryX=0;entryY=0.548;entryDx=0;entryDy=0;entryPerimeter=0;" edge="1" parent="1" source="gibNeVkrNDqYFLYTPmZy-1" target="gibNeVkrNDqYFLYTPmZy-20">
          <mxGeometry width="50" height="50" relative="1" as="geometry">
            <mxPoint x="105" y="437" as="sourcePoint" />
            <mxPoint x="185" y="600" as="targetPoint" />
          </mxGeometry>
        </mxCell>
      </root>
    </mxGraphModel>
  </diagram>
</mxfile>
